<svg width="799" height="690" viewBox="0 0 799 690" fill="none" xmlns="http://www.w3.org/2000/svg">
<g clip-path="url(#clip0)">
<path d="M516.92 624.636C516.92 624.636 512.16 626.266 504.42 628.576C487.31 633.706 455.65 642.216 428.82 643.916C405.72 645.396 386.2 641.836 382.63 626.766C381.1 620.286 383.27 614.956 388 610.576C402.12 597.486 439 592.796 468.25 591.186C476.51 590.736 484.15 590.526 490.51 590.446C501.31 590.306 508.39 590.526 508.39 590.526L508.56 591.186L516.92 624.636Z" fill="#A0616A"/>
<path d="M436.99 672.586C418.61 695.346 342.73 647.666 316.19 629.886C310.41 626.016 306.97 623.566 306.97 623.566L331.25 591.186L338.94 580.936C338.94 580.936 345.82 584.586 355.99 590.526C356.36 590.746 356.73 590.966 357.11 591.186C365.88 596.336 376.89 603.066 388 610.576C403.33 620.946 418.83 632.776 428.82 643.916C438.59 654.806 443.08 665.036 436.99 672.586Z" fill="#A0616A"/>
<path d="M571 302L559.417 378.471L537.04 494.291L536.393 500.629L528.93 573.997L523.966 622.738L520.637 655.478C498.948 667.884 483.226 676.455 483.226 676.455C483.226 676.455 481.81 669.046 479.547 659.569C503.506 657.692 464.298 664.707 479.547 659.569C484.93 652.166 488.359 670.096 479.547 659.569C463.296 681.89 335.22 679.498 311.372 662.4C310.852 666.551 310.675 670.745 310.844 674.932L292.578 659.885L294.101 624.863L296.67 565.605L299.899 491.292C298.674 488.122 297.643 484.868 296.812 481.551C291.086 460.056 253.454 414.501 248 378.471C243.611 349.475 248.701 326.714 248 321.5C247.905 320.819 273 289 273 289L357 255.5V278C364.279 295.983 409.5 289 409.5 289C437.102 286.67 455 264 455 264L571 302Z" fill="#3A3A3A"/>
<path d="M658.603 557.223C651.182 565.406 632.726 577.793 610.339 591.223C602.011 596.214 593.145 601.36 584.098 606.477C562.51 618.69 539.902 630.802 521.245 640.591C496.972 653.327 479.376 662.127 479.376 662.127C479.376 662.127 477.791 654.52 475.259 644.791C471.868 631.769 466.785 614.942 461.572 607.516C461.39 607.257 461.208 607.019 461.026 606.78C459.509 604.823 457.989 603.686 456.5 603.698L530.526 556.939L562.515 536.727L538.877 481.615L509.23 412.484L526.296 356.528L543.45 300.28H568C568 300.28 595.729 314.819 610 348C612.133 352.962 615.255 368.659 617.5 374C646.873 443.754 674.564 539.637 658.603 557.223Z" fill="#3A3A3A"/>
<path d="M344.259 596.541C341.546 596.553 338.838 596.797 336.165 597.269C313.21 601.414 306.606 622.281 304.795 636.237C304.213 640.499 304.015 644.805 304.204 649.102L283.762 633.655L276.314 628.028C258.452 621.969 242.489 611.074 228.619 598.181C216.585 586.797 205.77 574.19 196.349 560.564C186.967 547.134 178.584 533.033 171.27 518.375C169.23 514.284 168.113 509.795 168 505.225C167.887 500.655 168.78 496.116 170.616 491.929L195.29 435.668L226.636 360.841C226.889 358.889 246.182 314 232.195 347.712C239.131 305.852 276 287 276 287H311L283.914 347.273L296.949 422.156L288.5 450.568L268.975 516.186L288.341 536.863L344.259 596.541Z" fill="#3A3A3A"/>
<path d="M351.674 109.41L342.002 137.633C341.88 153.533 342.096 186.954 343.937 193.436C346.238 201.539 361.281 243.293 363.235 245.33C365.19 247.366 384.38 262.067 393.81 265.373C403.239 268.68 417.807 269.732 424.92 266.957C430.609 264.737 448.139 252.987 456.192 247.389C460.845 240.013 470.887 221.74 473.79 213.03C476.693 204.321 482.331 178.195 484.787 166.221L481.53 128.6L478.621 97.0451L478.749 80.4714L464.741 57.7252L443.96 45.0334L395.547 39.4058L367.144 44.4428L359.882 66.6213L351.674 109.41Z" fill="#DFA043" stroke="black"/>
<path d="M442.487 110L433.943 114.752C432.843 115.874 430.72 118.633 431.031 120.692C431.419 123.266 437.098 124.454 438.651 125.84C440.205 127.226 454.573 132.374 457.097 131.978C459.117 131.662 469.411 131.645 472 130.721V130.127V128.543C471.32 127.553 468.165 125.177 466.223 122.009C464.67 119.475 457.308 114.224 453.942 112.574L442.487 110Z" fill="#CA7800" fill-opacity="0.4" stroke="black"/>
<path d="M397.452 122.023L401.473 114.339C401.682 112.729 400.712 112.764 399.221 111.286C397.358 109.438 387.23 105.205 387.23 105.205C387.23 105.205 370.937 109.364 369.145 111.286C367.711 112.823 363.021 117.417 361.494 119.809L358.682 122.023L361.566 123.578C363.614 124.005 362.725 122.231 366.196 123.578C368.973 124.655 380.383 126.467 384.085 125.676L397.452 122.023Z" fill="#CA7800" fill-opacity="0.4" stroke="black"/>
<path d="M421.385 156.009C418.182 155.837 417.127 158.088 417 159.235C417 160.74 419.288 163.965 421.385 165.255C423.482 166.545 425.77 165.9 428.058 165.255C430.346 164.61 427.867 159.235 426.914 157.729C425.961 156.224 425.389 156.224 421.385 156.009Z" fill="#040000" stroke="black"/>
<path d="M381.142 119.517L394.439 116.922C395.026 116.922 396.786 116.7 399.133 115.81C401.479 114.921 398.595 112.721 396.052 112.289L382.95 110L372.929 112.289L361 121L365.498 119.517H381.142Z" fill="white" fill-opacity="0.7" stroke="black"/>
<path d="M448.435 113L435.146 114.789C434.562 115.431 432.663 115.999 433.052 117.07C433.442 118.142 435.146 121.001 436.703 121.001C438.261 121.001 447.413 124.001 452.086 125.072C455.825 125.929 461.562 126.714 463.964 127H470C467.923 125.572 464.752 123.155 463.039 121.784C461.325 120.413 452.459 114.5 448.435 113Z" fill="white" fill-opacity="0.7" stroke="black"/>
<path d="M425.839 102V114.407C425.97 123.898 426.389 143.573 427.018 146.339C427.804 149.797 432.322 153.661 433.501 156.305C434.679 158.949 433.697 163.017 431.34 166.881C429.454 169.973 425.97 169.932 424.464 169.525L415.231 171.356L410.713 174L408.552 171.356L399.319 166.881C397.223 165.661 392.757 162.895 391.657 161.593C390.282 159.966 391.461 155.492 391.657 153.661C391.814 152.197 394.08 149.525 395.193 148.373L402.855 136.78C404.754 132.508 408.552 122.664 408.552 117.458" stroke="black"/>
<path d="M407.416 157.294L402.905 154H397.61C396.237 154 397.61 157.294 397.61 158.844C397.61 160.394 402.905 162.525 404.67 162.913C406.435 163.3 409.573 162.331 409.965 161.363C410.279 160.588 408.396 158.327 407.416 157.294Z" fill="#040000" stroke="black"/>
<path d="M362.872 104.941L358 111V100.498C358 99.0837 359.364 95.6502 361.118 93.2266C362.872 90.803 367.354 82.7241 370.472 82.7241H376.123C377.292 82.7241 383.918 78.6847 386.256 77.6749C388.127 76.867 393.532 72.2217 396 70C395.221 72.7603 393.895 78.6039 394.831 79.8966C396 81.5123 394.831 87.9754 393.662 89.3892C392.492 90.803 384.892 94.0345 382.359 94.6404C379.826 95.2463 370.277 100.7 368.328 100.498C366.769 100.336 364.041 103.392 362.872 104.941Z" fill="#040000" stroke="black"/>
<path d="M474 112.636L471.277 100.864L469.915 97.9205C468.554 96.2386 457.661 87.4091 454.549 87.4091C452.059 87.4091 442.619 81.803 438.21 79C437.951 81.2424 437.354 86.0636 437.043 87.4091C436.654 89.0909 438.988 98.3409 440.933 99.6023C442.878 100.864 446.768 101.915 449.103 102.545C451.437 103.176 456.883 104.227 459.606 104.227C461.785 104.227 470.11 112.076 474 116V112.636Z" fill="#040000" stroke="black"/>
<path d="M395.72 189.817L384.343 199.196C383.297 199.89 381.401 201.28 382.185 201.28H398.074H414.551C417.101 201.28 427.694 204.198 434.952 203.989C442.21 203.781 439.856 201.905 438.679 201.28C437.737 200.78 433.579 197.598 431.617 196.07C427.694 192.526 419.455 185.44 417.886 185.44C416.317 185.44 413.963 187.108 412.982 187.941C412.263 187.524 410.589 186.441 409.647 185.44C408.47 184.19 405.724 186.066 404.155 185.44C402.9 184.94 398.009 188.15 395.72 189.817Z" fill="#FFB7B7" stroke="black"/>
<path d="M400 193L409.929 193.833H419.274L422 195" stroke="black"/>
<path d="M409.409 182.734C410.48 182.087 409.855 176.807 409.409 174.248C408.389 174.248 406.082 173.804 405.011 172.026C403.673 169.803 400.231 170.208 397.172 170.005C394.113 169.803 391.436 175.258 389.715 177.077C387.994 178.895 380.729 179.703 379.199 179.905C377.669 180.107 371.933 187.179 370.595 193.038C369.256 198.897 370.595 208.595 370.595 206.776C370.595 205.322 373.272 202.803 374.61 201.725C377.287 200.581 383.099 198.25 384.935 198.089C387.229 197.887 391.245 192.836 393.157 190.613C395.069 188.391 394.113 189.199 397.172 187.179C400.231 185.158 399.658 184.754 402.334 183.946C405.011 183.138 408.07 183.542 409.409 182.734Z" fill="#040000" stroke="black"/>
<path d="M413 175L416 174" stroke="black"/>
<path d="M331.605 135.699C332.077 133.411 334.691 131.613 335.938 131C337.987 131 340.469 136.176 341.454 138.764L345 192.293C343.49 192.702 340.115 193.601 338.696 193.928C336.923 194.336 334.56 192.906 333.378 192.293C332.196 191.68 331.605 188.82 331.605 186.981C331.605 185.51 332.048 180.576 333.378 181.394C332.458 180.372 328.65 158.5 329.438 157.356C329.438 156.13 328.453 147.753 329.438 146.323C330.423 144.893 331.014 138.559 331.605 135.699Z" fill="#DFA043"/>
<path d="M329.438 157.356C329.438 156.13 328.453 147.753 329.438 146.323C330.423 144.893 331.014 138.559 331.605 135.699C332.077 133.411 334.691 131.613 335.938 131C337.987 131 340.469 136.176 341.454 138.764L345 192.293C343.49 192.702 340.115 193.601 338.696 193.928C336.923 194.336 334.56 192.906 333.378 192.293C332.196 191.68 331.605 188.82 331.605 186.981C331.605 185.51 332.048 180.576 333.378 181.394C332.458 180.372 328.65 158.5 329.438 157.356ZM329.438 157.356C329.438 158.582 329.438 154.904 329.438 157.356ZM329.438 157.356C329.438 159.808 330.423 155.926 329.438 157.356Z" stroke="black"/>
<path d="M491.071 153.965L487.375 157.019H485.43L484.068 171.068L479.594 191.428C478.816 195.025 477.454 202.545 478.232 203.848C479.205 205.477 488.737 206.424 491.071 205.813C493.406 205.202 491.071 198.962 491.071 195.5C491.071 192.039 494.184 187.153 494.184 185.117C494.184 183.081 496.713 169.643 497.685 168.421C498.658 167.199 497.102 157.019 496.713 155.594C496.324 154.169 495.351 151.929 494.184 151.115C493.25 150.463 491.72 152.744 491.071 153.965Z" fill="#DFA043" stroke="black"/>
<path d="M330.058 119.957C330.058 122.039 331.88 128.7 332.791 131.77C334.196 130.649 336.369 131.303 337.28 131.77C337.931 132.304 339.428 133.852 340.209 135.775C340.989 137.697 342.226 151.392 342.746 158V136.976C344.178 131.303 347.353 119.596 348.603 118.154C350.164 116.352 358.021 91.524 359.778 83.9153C361.183 77.8284 362.527 58.3528 365 48.4748C364.545 46.4058 363.438 41.9474 362.658 40.6659C361.681 39.0641 352.897 38.8638 350.359 39.0641C347.822 39.2643 341.77 44.4703 340.209 44.6705C338.647 44.8707 332.791 52.0789 331.034 52.6796C329.277 53.2803 326.349 82.714 327.13 83.9153C327.911 85.1167 329.082 96.3295 328.496 97.7311C327.91 99.1327 330.058 117.354 330.058 119.957Z" fill="#040000" stroke="black"/>
<path d="M363.277 39.9094L365.229 49.4115L367.377 46.1767L382.019 42.3354L395.296 39.9094L409.548 42.3354L443.129 46.1767L464.41 58.9136L477.686 80.7483V96.1134L480.029 117.948L484.52 160L486.862 158.585L494.672 154.137L496.429 151.509C497.731 148.544 500.841 141.643 502.872 137.761C505.41 132.909 502.872 123.407 502.872 122.194C502.872 120.981 501.505 110.468 502.872 109.457C504.239 108.446 503.262 89.4417 502.872 87.0156C502.481 84.5895 497.991 67.607 496.429 64.7766C494.867 61.9462 490.572 49.4115 490.572 47.9963C490.572 46.581 481.005 36.2702 479.639 35.2594C478.272 34.2485 472.61 25.5551 469.486 19.4899C466.362 13.4247 468.51 12.0095 463.629 7.76387C458.748 3.51822 451.134 1.09218 444.691 0.081315C438.248 -0.929549 426.143 -1.13172 419.505 -0.929549C412.867 -0.727376 399.786 1.49652 393.539 3.9226C387.291 6.34867 381.434 9.98778 379.872 12.0095C378.31 14.0312 369.524 19.4899 368.353 19.4899C367.181 19.4899 361.91 26.566 361.129 30.2051C360.504 33.1164 362.3 37.8876 363.277 39.9094Z" fill="#040000" stroke="black"/>
<path d="M355.916 255.649L357.875 233.223L359.245 232C359.833 234.311 362.819 240.124 362.819 242.734C362.819 245.996 392.338 263.396 395.08 265.027C397.821 266.658 412.312 267.473 417.011 267.881C420.771 268.207 430.066 263.396 434.243 260.949L455 247.494V288.268C455 291.203 441.162 293.296 434.243 293.976C422.755 293.84 396.49 293.65 383.331 293.976C366.882 294.384 364.141 289.491 361.008 288.268C358.501 287.289 353.958 279.977 352 276.443L355.916 255.649Z" fill="#DFA043" stroke="black"/>
<path d="M484 174.326L485.469 169.653C485.469 167.122 489.874 172.574 491.133 175.299C492.392 178.025 492.182 180.75 491.133 182.892C490.084 185.033 487.357 185.228 485.469 184.839C483.58 184.449 484 179.193 485.469 178.414C486.643 177.791 484.979 175.429 484 174.326Z" fill="#040000" stroke="black"/>
<path d="M332.512 165.531C331.024 163.677 333.132 160.405 334.372 159C335.768 159 338.837 159.253 339.954 160.264C341.349 161.528 341.349 165.531 339.954 167.217C338.558 168.902 339.954 173.326 337.163 173.958C334.372 174.59 334.372 167.849 332.512 165.531Z" fill="#040000" stroke="black"/>
<path d="M410.069 177.769C409.753 176.815 410.596 175.781 411.057 175.383C412.045 174.919 414.257 173.912 415.206 173.593C416.391 173.196 421.132 171.406 422.318 172.201C423.503 172.997 425.083 174.588 425.676 176.178C426.269 177.769 427.652 178.962 431.208 180.951C434.764 182.939 442.666 187.314 444.246 188.706C445.511 189.819 447.276 201.366 448 207C447.737 206.536 446.894 205.25 445.629 203.818C444.049 202.029 441.086 201.83 439.703 201.432C438.32 201.035 427.059 191.092 425.676 190.496C424.293 189.899 422.515 187.712 421.132 186.717C419.749 185.723 419.354 184.132 418.564 184.331C417.774 184.53 412.045 183.536 411.057 183.536C410.069 183.536 410.464 178.962 410.069 177.769Z" fill="#040000" stroke="black"/>
<path d="M402.2 203.611H404.746H408.664C410.231 203.611 415.455 203.204 417.871 203C418.132 203.204 418.811 204.181 419.438 206.46C420.221 209.31 417.675 211.141 416.891 211.752C416.264 212.24 414.541 210.87 413.757 210.124C413.822 210.734 413.796 213.747 413.169 220.911C412.386 229.867 413.757 234.955 414.932 238.008C415.873 240.45 420.417 242.011 422.572 242.486C426.228 243.436 433.894 245.457 435.304 245.946C436.714 246.434 438.112 251.306 438.634 253.68C443.923 250.084 454.579 242.811 454.892 242.486C455.206 242.16 454.762 245.471 454.5 247.167L451.366 249.406C445.751 253.205 433.815 261.292 430.995 263.246C427.469 265.689 417.675 267.113 408.076 267.928C398.478 268.742 391.426 262.432 389.664 262.025C387.901 261.618 368.117 248.185 365.178 245.946C362.24 243.707 360.869 237.194 360.085 234.955C359.459 233.164 362.436 232.852 364.003 232.92C364.852 234.277 367.568 237.601 371.642 240.043C376.735 243.096 380.261 243.3 384.767 242.893C389.272 242.486 397.107 239.636 400.241 238.008C403.375 236.38 404.746 226.203 406.118 218.265C407.489 210.327 404.746 211.141 404.746 210.124C404.746 209.31 400.698 209.784 398.674 210.124L402.2 203.611Z" fill="#040000" stroke="black"/>
<circle cx="383" cy="115" r="5" fill="#040000"/>
<ellipse cx="448.5" cy="119" rx="5.5" ry="5" fill="#040000"/>
<path d="M372.877 415.806L385.631 430.686C390.37 429.783 395.319 428.721 400.416 427.529L396.752 415.806L405.71 426.256C459.707 412.975 526.637 387.155 526.637 387.155C526.637 387.155 454.379 392.453 400.428 380.666C376.558 375.451 351.998 387.284 342.202 409.668C336.508 422.679 337.403 433.951 357.596 433.951C364.419 433.835 371.223 433.195 377.949 432.037L372.877 415.806Z" fill="#38D39F"/>
<path d="M663.65 660.386V666.456C663.654 668.122 663.345 669.774 662.74 671.326C662.472 672.018 662.147 672.687 661.77 673.326C660.578 675.326 658.887 676.983 656.862 678.133C654.838 679.283 652.549 679.887 650.22 679.886H203.67C201.342 679.887 199.053 679.283 197.028 678.133C195.003 676.983 193.312 675.326 192.12 673.326C191.743 672.687 191.419 672.018 191.15 671.326C190.546 669.774 190.237 668.122 190.24 666.456V660.386C190.24 658.622 190.587 656.876 191.262 655.246C191.936 653.616 192.926 652.136 194.173 650.888C195.42 649.641 196.901 648.652 198.53 647.977C200.16 647.302 201.906 646.955 203.67 646.956H229.41V644.126C229.41 644.052 229.425 643.979 229.453 643.911C229.481 643.843 229.522 643.782 229.574 643.73C229.626 643.678 229.688 643.636 229.756 643.608C229.824 643.58 229.897 643.566 229.97 643.566H243.4C243.474 643.566 243.547 643.58 243.615 643.608C243.683 643.636 243.745 643.678 243.797 643.73C243.849 643.782 243.89 643.843 243.918 643.911C243.946 643.979 243.96 644.052 243.96 644.126V646.956H252.35V644.126C252.35 644.052 252.365 643.979 252.393 643.911C252.421 643.843 252.462 643.782 252.514 643.73C252.566 643.678 252.628 643.636 252.696 643.608C252.764 643.58 252.837 643.566 252.91 643.566H266.34C266.414 643.566 266.487 643.58 266.555 643.608C266.623 643.636 266.684 643.678 266.736 643.73C266.789 643.782 266.83 643.843 266.858 643.911C266.886 643.979 266.9 644.052 266.9 644.126V646.956H275.3V644.126C275.3 644.052 275.315 643.979 275.343 643.911C275.371 643.843 275.412 643.782 275.464 643.73C275.516 643.678 275.578 643.636 275.646 643.608C275.714 643.58 275.787 643.566 275.86 643.566H289.29C289.364 643.566 289.437 643.58 289.505 643.608C289.573 643.636 289.634 643.678 289.686 643.73C289.739 643.782 289.78 643.843 289.808 643.911C289.836 643.979 289.85 644.052 289.85 644.126V646.956H298.24V644.126C298.24 644.052 298.255 643.979 298.283 643.911C298.311 643.843 298.352 643.782 298.404 643.73C298.456 643.678 298.518 643.636 298.586 643.608C298.654 643.58 298.727 643.566 298.8 643.566H312.23C312.304 643.566 312.377 643.58 312.445 643.608C312.513 643.636 312.574 643.678 312.626 643.73C312.678 643.782 312.72 643.843 312.748 643.911C312.776 643.979 312.79 644.052 312.79 644.126V646.956H321.18V644.126C321.18 644.052 321.194 643.979 321.223 643.911C321.251 643.843 321.292 643.782 321.344 643.73C321.396 643.678 321.458 643.636 321.526 643.608C321.594 643.58 321.667 643.566 321.74 643.566H335.17C335.244 643.566 335.317 643.58 335.385 643.608C335.453 643.636 335.514 643.678 335.566 643.73C335.618 643.782 335.66 643.843 335.688 643.911C335.716 643.979 335.73 644.052 335.73 644.126V646.956H344.13V644.126C344.13 644.052 344.145 643.979 344.173 643.911C344.201 643.843 344.242 643.782 344.294 643.73C344.346 643.678 344.408 643.636 344.476 643.608C344.544 643.58 344.617 643.566 344.69 643.566H358.12C358.194 643.566 358.267 643.58 358.335 643.608C358.403 643.636 358.464 643.678 358.516 643.73C358.569 643.782 358.61 643.843 358.638 643.911C358.666 643.979 358.68 644.052 358.68 644.126V646.956H367.07V644.126C367.07 644.052 367.085 643.979 367.113 643.911C367.141 643.843 367.182 643.782 367.234 643.73C367.286 643.678 367.348 643.636 367.416 643.608C367.484 643.58 367.557 643.566 367.63 643.566H472.83C472.904 643.566 472.977 643.58 473.045 643.608C473.113 643.636 473.174 643.678 473.227 643.73C473.279 643.782 473.32 643.843 473.348 643.911C473.376 643.979 473.39 644.052 473.39 644.126V646.956H481.79V644.126C481.79 644.052 481.804 643.979 481.833 643.911C481.861 643.843 481.902 643.782 481.954 643.73C482.006 643.678 482.068 643.636 482.136 643.608C482.204 643.58 482.277 643.566 482.35 643.566H495.78C495.928 643.567 496.07 643.627 496.175 643.732C496.279 643.836 496.339 643.978 496.34 644.126V646.956H504.73V644.126C504.73 644.052 504.745 643.979 504.773 643.911C504.801 643.843 504.842 643.782 504.894 643.73C504.946 643.678 505.008 643.636 505.076 643.608C505.144 643.58 505.217 643.566 505.29 643.566H518.72C518.794 643.566 518.867 643.58 518.935 643.608C519.003 643.636 519.065 643.678 519.117 643.73C519.169 643.782 519.21 643.843 519.238 643.911C519.266 643.979 519.28 644.052 519.28 644.126V646.956H527.67V644.126C527.67 644.052 527.685 643.979 527.713 643.911C527.741 643.843 527.782 643.782 527.834 643.73C527.886 643.678 527.948 643.636 528.016 643.608C528.084 643.58 528.157 643.566 528.23 643.566H541.66C541.734 643.566 541.807 643.58 541.875 643.608C541.943 643.636 542.005 643.678 542.057 643.73C542.109 643.782 542.15 643.843 542.178 643.911C542.206 643.979 542.22 644.052 542.22 644.126V646.956H550.62V644.126C550.62 644.052 550.635 643.979 550.663 643.911C550.691 643.843 550.732 643.782 550.784 643.73C550.836 643.678 550.898 643.636 550.966 643.608C551.034 643.58 551.107 643.566 551.18 643.566H564.61C564.757 643.568 564.898 643.628 565.001 643.733C565.104 643.837 565.161 643.979 565.16 644.126V646.956H573.56V644.126C573.56 644.052 573.575 643.979 573.603 643.911C573.631 643.843 573.672 643.782 573.724 643.73C573.776 643.678 573.838 643.636 573.906 643.608C573.974 643.58 574.047 643.566 574.12 643.566H587.55C587.624 643.566 587.697 643.58 587.765 643.608C587.833 643.636 587.895 643.678 587.947 643.73C587.999 643.782 588.04 643.843 588.068 643.911C588.096 643.979 588.11 644.052 588.11 644.126V646.956H596.5V644.126C596.5 644.052 596.515 643.979 596.543 643.911C596.571 643.843 596.612 643.782 596.664 643.73C596.716 643.678 596.778 643.636 596.846 643.608C596.914 643.58 596.987 643.566 597.06 643.566H610.49C610.564 643.566 610.637 643.58 610.705 643.608C610.773 643.636 610.835 643.678 610.887 643.73C610.939 643.782 610.98 643.843 611.008 643.911C611.036 643.979 611.05 644.052 611.05 644.126V646.956H650.22C651.984 646.955 653.731 647.302 655.36 647.977C656.99 648.652 658.471 649.641 659.718 650.888C660.965 652.136 661.954 653.616 662.629 655.246C663.304 656.876 663.651 658.622 663.65 660.386Z" fill="#3F3D56"/>
<path d="M793.5 671.326H60.5V673.326H793.5V671.326Z" fill="#3F3D56"/>
<path d="M627.694 404.757H461.251V401.326H385.78V404.757H218.651C215.665 404.757 212.801 405.943 210.69 408.054C208.578 410.166 207.392 413.029 207.392 416.015V643.927C207.392 646.913 208.578 649.776 210.69 651.888C212.801 653.999 215.665 655.185 218.651 655.185H627.694C630.68 655.185 633.544 653.999 635.655 651.888C637.767 649.776 638.953 646.913 638.953 643.927V416.015C638.953 414.537 638.662 413.073 638.096 411.707C637.53 410.341 636.701 409.1 635.655 408.054C634.61 407.009 633.369 406.18 632.003 405.614C630.637 405.048 629.173 404.757 627.694 404.757Z" fill="#3F3D56"/>
<path d="M423.5 509.326C437.307 509.326 448.5 498.133 448.5 484.326C448.5 470.519 437.307 459.326 423.5 459.326C409.693 459.326 398.5 470.519 398.5 484.326C398.5 498.133 409.693 509.326 423.5 509.326Z" stroke="#D0CDE1" stroke-width="2" stroke-miterlimit="10"/>
<path d="M415.5 518.326C429.307 518.326 440.5 507.133 440.5 493.326C440.5 479.519 429.307 468.326 415.5 468.326C401.693 468.326 390.5 479.519 390.5 493.326C390.5 507.133 401.693 518.326 415.5 518.326Z" fill="#D0CDE1"/>
<path d="M108.446 661.223H80.4463V689.223H108.446V661.223Z" fill="#D0CDE1"/>
<path d="M91.4502 639.223V673.223H125.45V639.223H91.4502ZM123.97 671.743H92.9202V640.703H123.97V671.743Z" fill="#3F3D56"/>
<path d="M756.446 661.223H728.446V689.223H756.446V661.223Z" fill="#D0CDE1"/>
<path d="M739.45 639.223V673.223H773.45V639.223H739.45ZM771.97 671.743H740.92V640.703H771.97V671.743Z" fill="#3F3D56"/>
<path d="M94.5802 230.113C138.399 230.113 173.921 194.592 173.921 150.773C173.921 106.955 138.399 71.4326 94.5802 71.4326C50.7617 71.4326 15.2397 106.955 15.2397 150.773C15.2397 194.592 50.7617 230.113 94.5802 230.113Z" fill="black"/>
<path d="M122.229 56.4899C115.045 55.5763 107.774 55.5763 100.59 56.4899C84.586 58.5913 69.5203 65.2398 57.181 75.6465C44.8417 86.0532 35.7467 99.7813 30.9754 115.202C28.8053 122.229 27.5764 129.514 27.3208 136.864C27.2848 137.886 27.2607 138.92 27.2607 139.954C27.283 162.264 36.1559 183.655 51.932 199.431C67.7082 215.207 89.0989 224.08 111.41 224.103C113.201 224.103 114.992 224.042 116.759 223.934C120.907 223.674 125.03 223.103 129.093 222.227C148.495 218.055 165.798 207.161 177.947 191.468C190.095 175.776 196.308 156.295 195.487 136.467C194.665 116.638 186.863 97.738 173.459 83.1039C160.054 68.4698 141.909 59.0435 122.229 56.4899ZM137.748 217.347H137.736C130.959 219.659 123.905 221.062 116.759 221.518C114.992 221.638 113.201 221.698 111.41 221.698C89.7377 221.672 68.961 213.051 53.6367 197.727C38.3123 182.402 29.6914 161.626 29.6649 139.954C29.6649 138.92 29.689 137.886 29.725 136.864C30.5514 115.744 39.5156 95.7617 54.7411 81.1008C69.9666 66.44 90.273 58.237 111.41 58.2089C130.776 58.21 149.513 65.0865 164.283 77.6131C179.052 90.1398 188.895 107.503 192.057 126.61C195.219 145.716 191.496 165.325 181.55 181.942C171.604 198.559 156.081 211.106 137.748 217.347Z" fill="#3F3D56"/>
<path d="M112.612 63.0176H110.208V79.8474H112.612V63.0176Z" fill="#3F3D56"/>
<path d="M57.8578 84.7018L56.1577 86.4019L68.0582 98.3023L69.7582 96.6022L57.8578 84.7018Z" fill="#3F3D56"/>
<path d="M34.4736 138.751V141.156H51.3034V138.751H34.4736Z" fill="#3F3D56"/>
<path d="M56.1578 193.506L57.8579 195.206L69.7584 183.306L68.0583 181.606L56.1578 193.506Z" fill="#3F3D56"/>
<path d="M153.062 96.6023L154.762 98.3023L166.662 86.4019L164.962 84.7018L153.062 96.6023Z" fill="#3F3D56"/>
<path d="M171.516 138.751V141.156H188.346V138.751H171.516Z" fill="#3F3D56"/>
<path d="M154.762 181.605L153.062 183.305L164.962 195.206L166.662 193.506L154.762 181.605Z" fill="#3F3D56"/>
<path d="M112.612 200.06H110.208V216.89H112.612V200.06Z" fill="#3F3D56"/>
<path d="M115.016 135.145C113.976 134.365 112.711 133.943 111.41 133.943C110.11 133.943 108.844 134.365 107.804 135.145C107.091 135.686 106.505 136.375 106.085 137.165C105.552 138.181 105.322 139.329 105.421 140.473C105.52 141.616 105.944 142.707 106.644 143.617C107.343 144.527 108.288 145.218 109.368 145.608C110.447 145.997 111.616 146.07 112.735 145.817C113.855 145.564 114.878 144.996 115.685 144.179C116.492 143.363 117.048 142.333 117.288 141.21C117.528 140.088 117.441 138.92 117.039 137.846C116.636 136.771 115.935 135.834 115.017 135.145H115.016ZM111.41 143.56C110.454 143.557 109.539 143.176 108.863 142.501C108.187 141.825 107.807 140.909 107.804 139.954C107.808 139.224 108.03 138.513 108.441 137.91C108.793 137.4 109.271 136.989 109.828 136.718C110.386 136.446 111.004 136.323 111.623 136.361C112.241 136.398 112.84 136.594 113.361 136.931C113.881 137.267 114.307 137.732 114.595 138.281C114.883 138.83 115.025 139.444 115.007 140.063C114.989 140.683 114.811 141.287 114.491 141.818C114.17 142.349 113.719 142.788 113.179 143.093C112.639 143.398 112.03 143.559 111.41 143.56Z" fill="white"/>
<path d="M122.229 35.3688H100.591V57.0071H122.229V35.3688Z" fill="#3F3D56"/>
<path d="M111.41 38.9748C127.344 38.9748 140.261 34.4 140.261 28.7567C140.261 23.1134 127.344 18.5386 111.41 18.5386C95.4757 18.5386 82.5586 23.1134 82.5586 28.7567C82.5586 34.4 95.4757 38.9748 111.41 38.9748Z" fill="#3F3D56"/>
<path d="M115 86H108V135H115V86Z" fill="white"/>
<path d="M226 220.44H0V222.844H226V220.44Z" fill="#3F3D56"/>
</g>
<defs>
<clipPath id="clip0">
<rect width="799" height="690" fill="white"/>
</clipPath>
</defs>
</svg>
